<mxfile host="app.diagrams.net" modified="2020-06-04T14:22:54.752Z" agent="5.0 (Windows NT 10.0; Win64; x64) AppleWebKit/537.36 (KHTML, like Gecko) Chrome/83.0.4103.97 Safari/537.36" etag="a5gU8ouJSOuUgl5WBXWJ" version="13.1.14" type="github">
  <diagram id="XlsL7bXMiPi8wjKvG55G" name="第 1 页">
    <mxGraphModel dx="1550" dy="499" grid="1" gridSize="10" guides="1" tooltips="1" connect="1" arrows="1" fold="1" page="1" pageScale="1" pageWidth="1169" pageHeight="827" math="0" shadow="0">
      <root>
        <mxCell id="0" />
        <mxCell id="1" parent="0" />
        <mxCell id="71_eQ64aTm-e6dtkhZpV-28" style="edgeStyle=orthogonalEdgeStyle;rounded=0;orthogonalLoop=1;jettySize=auto;html=1;entryX=0.5;entryY=0;entryDx=0;entryDy=0;" parent="1" source="71_eQ64aTm-e6dtkhZpV-1" target="71_eQ64aTm-e6dtkhZpV-2" edge="1">
          <mxGeometry relative="1" as="geometry" />
        </mxCell>
        <mxCell id="71_eQ64aTm-e6dtkhZpV-52" style="edgeStyle=orthogonalEdgeStyle;shape=link;rounded=0;orthogonalLoop=1;jettySize=auto;html=1;" parent="1" source="71_eQ64aTm-e6dtkhZpV-1" target="71_eQ64aTm-e6dtkhZpV-19" edge="1">
          <mxGeometry relative="1" as="geometry" />
        </mxCell>
        <mxCell id="71_eQ64aTm-e6dtkhZpV-1" value="应用层" style="rounded=1;whiteSpace=wrap;html=1;fillColor=#d5e8d4;strokeColor=#82b366;" parent="1" vertex="1">
          <mxGeometry x="190" y="80" width="120" height="60" as="geometry" />
        </mxCell>
        <mxCell id="71_eQ64aTm-e6dtkhZpV-29" style="edgeStyle=orthogonalEdgeStyle;rounded=0;orthogonalLoop=1;jettySize=auto;html=1;exitX=0.5;exitY=1;exitDx=0;exitDy=0;entryX=0.5;entryY=0;entryDx=0;entryDy=0;" parent="1" source="71_eQ64aTm-e6dtkhZpV-2" target="71_eQ64aTm-e6dtkhZpV-3" edge="1">
          <mxGeometry relative="1" as="geometry" />
        </mxCell>
        <mxCell id="71_eQ64aTm-e6dtkhZpV-53" style="edgeStyle=orthogonalEdgeStyle;shape=link;rounded=0;orthogonalLoop=1;jettySize=auto;html=1;" parent="1" source="71_eQ64aTm-e6dtkhZpV-2" target="71_eQ64aTm-e6dtkhZpV-20" edge="1">
          <mxGeometry relative="1" as="geometry" />
        </mxCell>
        <mxCell id="71_eQ64aTm-e6dtkhZpV-2" value="表示层" style="rounded=1;whiteSpace=wrap;html=1;fillColor=#d5e8d4;strokeColor=#82b366;" parent="1" vertex="1">
          <mxGeometry x="190" y="200" width="120" height="60" as="geometry" />
        </mxCell>
        <mxCell id="71_eQ64aTm-e6dtkhZpV-30" style="edgeStyle=orthogonalEdgeStyle;rounded=0;orthogonalLoop=1;jettySize=auto;html=1;exitX=0.5;exitY=1;exitDx=0;exitDy=0;entryX=0.5;entryY=0;entryDx=0;entryDy=0;" parent="1" source="71_eQ64aTm-e6dtkhZpV-3" target="71_eQ64aTm-e6dtkhZpV-8" edge="1">
          <mxGeometry relative="1" as="geometry" />
        </mxCell>
        <mxCell id="71_eQ64aTm-e6dtkhZpV-54" style="edgeStyle=orthogonalEdgeStyle;shape=link;rounded=0;orthogonalLoop=1;jettySize=auto;html=1;entryX=0;entryY=0.5;entryDx=0;entryDy=0;" parent="1" source="71_eQ64aTm-e6dtkhZpV-3" target="71_eQ64aTm-e6dtkhZpV-21" edge="1">
          <mxGeometry relative="1" as="geometry" />
        </mxCell>
        <mxCell id="71_eQ64aTm-e6dtkhZpV-3" value="会话层" style="rounded=1;whiteSpace=wrap;html=1;fillColor=#d5e8d4;strokeColor=#82b366;" parent="1" vertex="1">
          <mxGeometry x="190" y="320" width="120" height="60" as="geometry" />
        </mxCell>
        <mxCell id="71_eQ64aTm-e6dtkhZpV-31" style="edgeStyle=orthogonalEdgeStyle;rounded=0;orthogonalLoop=1;jettySize=auto;html=1;exitX=0.5;exitY=1;exitDx=0;exitDy=0;entryX=0.5;entryY=0;entryDx=0;entryDy=0;" parent="1" source="71_eQ64aTm-e6dtkhZpV-8" target="71_eQ64aTm-e6dtkhZpV-9" edge="1">
          <mxGeometry relative="1" as="geometry" />
        </mxCell>
        <mxCell id="71_eQ64aTm-e6dtkhZpV-55" style="edgeStyle=orthogonalEdgeStyle;shape=link;rounded=0;orthogonalLoop=1;jettySize=auto;html=1;" parent="1" source="71_eQ64aTm-e6dtkhZpV-69" target="71_eQ64aTm-e6dtkhZpV-22" edge="1">
          <mxGeometry relative="1" as="geometry" />
        </mxCell>
        <mxCell id="71_eQ64aTm-e6dtkhZpV-32" style="edgeStyle=orthogonalEdgeStyle;rounded=0;orthogonalLoop=1;jettySize=auto;html=1;exitX=0.5;exitY=1;exitDx=0;exitDy=0;entryX=0.5;entryY=0;entryDx=0;entryDy=0;" parent="1" source="71_eQ64aTm-e6dtkhZpV-9" target="71_eQ64aTm-e6dtkhZpV-10" edge="1">
          <mxGeometry relative="1" as="geometry" />
        </mxCell>
        <mxCell id="71_eQ64aTm-e6dtkhZpV-56" style="edgeStyle=orthogonalEdgeStyle;shape=link;rounded=0;orthogonalLoop=1;jettySize=auto;html=1;" parent="1" source="71_eQ64aTm-e6dtkhZpV-9" target="71_eQ64aTm-e6dtkhZpV-23" edge="1">
          <mxGeometry relative="1" as="geometry" />
        </mxCell>
        <mxCell id="71_eQ64aTm-e6dtkhZpV-9" value="网络层" style="rounded=1;whiteSpace=wrap;html=1;fillColor=#d5e8d4;strokeColor=#82b366;" parent="1" vertex="1">
          <mxGeometry x="190" y="550" width="120" height="60" as="geometry" />
        </mxCell>
        <mxCell id="71_eQ64aTm-e6dtkhZpV-33" style="edgeStyle=orthogonalEdgeStyle;rounded=0;orthogonalLoop=1;jettySize=auto;html=1;exitX=0.5;exitY=1;exitDx=0;exitDy=0;entryX=0.5;entryY=0;entryDx=0;entryDy=0;" parent="1" source="71_eQ64aTm-e6dtkhZpV-10" target="71_eQ64aTm-e6dtkhZpV-11" edge="1">
          <mxGeometry relative="1" as="geometry" />
        </mxCell>
        <mxCell id="71_eQ64aTm-e6dtkhZpV-59" style="edgeStyle=orthogonalEdgeStyle;shape=link;rounded=0;orthogonalLoop=1;jettySize=auto;html=1;" parent="1" source="71_eQ64aTm-e6dtkhZpV-10" target="71_eQ64aTm-e6dtkhZpV-24" edge="1">
          <mxGeometry relative="1" as="geometry" />
        </mxCell>
        <mxCell id="71_eQ64aTm-e6dtkhZpV-10" value="&lt;span style=&quot;font-family: &amp;#34;pingfang sc&amp;#34; , &amp;#34;heiti sc&amp;#34; , &amp;#34;myfont&amp;#34; , &amp;#34;microsoft yahei&amp;#34; , &amp;#34;source han sans sc&amp;#34; , &amp;#34;noto sans cjk sc&amp;#34; , &amp;#34;hanhei sc&amp;#34; , sans-serif , &amp;#34;icomoon&amp;#34; , &amp;#34;icons&amp;#34; , , &amp;#34;fontawesome&amp;#34; , &amp;#34;material icons&amp;#34; , &amp;#34;material icons extended&amp;#34; , &amp;#34;glyphicons halflings&amp;#34;&quot;&gt;数据链路层&lt;/span&gt;" style="rounded=1;whiteSpace=wrap;html=1;fillColor=#d5e8d4;strokeColor=#82b366;" parent="1" vertex="1">
          <mxGeometry x="190" y="660" width="120" height="60" as="geometry" />
        </mxCell>
        <mxCell id="71_eQ64aTm-e6dtkhZpV-34" style="edgeStyle=orthogonalEdgeStyle;rounded=0;orthogonalLoop=1;jettySize=auto;html=1;exitX=1;exitY=0.5;exitDx=0;exitDy=0;" parent="1" source="71_eQ64aTm-e6dtkhZpV-11" target="71_eQ64aTm-e6dtkhZpV-27" edge="1">
          <mxGeometry relative="1" as="geometry" />
        </mxCell>
        <mxCell id="71_eQ64aTm-e6dtkhZpV-60" style="edgeStyle=orthogonalEdgeStyle;shape=link;rounded=0;orthogonalLoop=1;jettySize=auto;html=1;" parent="1" source="71_eQ64aTm-e6dtkhZpV-11" target="71_eQ64aTm-e6dtkhZpV-25" edge="1">
          <mxGeometry relative="1" as="geometry" />
        </mxCell>
        <mxCell id="71_eQ64aTm-e6dtkhZpV-11" value="物理层" style="rounded=1;whiteSpace=wrap;html=1;fillColor=#d5e8d4;strokeColor=#82b366;" parent="1" vertex="1">
          <mxGeometry x="190" y="760" width="120" height="60" as="geometry" />
        </mxCell>
        <mxCell id="71_eQ64aTm-e6dtkhZpV-19" value="应用层" style="rounded=1;whiteSpace=wrap;html=1;fillColor=#d5e8d4;strokeColor=#82b366;" parent="1" vertex="1">
          <mxGeometry x="740" y="80" width="120" height="60" as="geometry" />
        </mxCell>
        <mxCell id="71_eQ64aTm-e6dtkhZpV-41" style="edgeStyle=orthogonalEdgeStyle;rounded=0;orthogonalLoop=1;jettySize=auto;html=1;entryX=0.5;entryY=1;entryDx=0;entryDy=0;" parent="1" source="71_eQ64aTm-e6dtkhZpV-20" target="71_eQ64aTm-e6dtkhZpV-19" edge="1">
          <mxGeometry relative="1" as="geometry" />
        </mxCell>
        <mxCell id="71_eQ64aTm-e6dtkhZpV-20" value="表示层" style="rounded=1;whiteSpace=wrap;html=1;fillColor=#d5e8d4;strokeColor=#82b366;" parent="1" vertex="1">
          <mxGeometry x="740" y="200" width="120" height="60" as="geometry" />
        </mxCell>
        <mxCell id="71_eQ64aTm-e6dtkhZpV-40" style="edgeStyle=orthogonalEdgeStyle;rounded=0;orthogonalLoop=1;jettySize=auto;html=1;entryX=0.5;entryY=1;entryDx=0;entryDy=0;" parent="1" source="71_eQ64aTm-e6dtkhZpV-21" target="71_eQ64aTm-e6dtkhZpV-20" edge="1">
          <mxGeometry relative="1" as="geometry" />
        </mxCell>
        <mxCell id="71_eQ64aTm-e6dtkhZpV-21" value="会话层" style="rounded=1;whiteSpace=wrap;html=1;fillColor=#d5e8d4;strokeColor=#82b366;" parent="1" vertex="1">
          <mxGeometry x="740" y="320" width="120" height="60" as="geometry" />
        </mxCell>
        <mxCell id="71_eQ64aTm-e6dtkhZpV-39" style="edgeStyle=orthogonalEdgeStyle;rounded=0;orthogonalLoop=1;jettySize=auto;html=1;entryX=0.5;entryY=1;entryDx=0;entryDy=0;" parent="1" source="71_eQ64aTm-e6dtkhZpV-22" target="71_eQ64aTm-e6dtkhZpV-21" edge="1">
          <mxGeometry relative="1" as="geometry" />
        </mxCell>
        <mxCell id="71_eQ64aTm-e6dtkhZpV-22" value="传输层" style="rounded=1;whiteSpace=wrap;html=1;fillColor=#d5e8d4;strokeColor=#82b366;" parent="1" vertex="1">
          <mxGeometry x="740" y="430" width="120" height="60" as="geometry" />
        </mxCell>
        <mxCell id="71_eQ64aTm-e6dtkhZpV-38" style="edgeStyle=orthogonalEdgeStyle;rounded=0;orthogonalLoop=1;jettySize=auto;html=1;entryX=0.5;entryY=1;entryDx=0;entryDy=0;" parent="1" source="71_eQ64aTm-e6dtkhZpV-23" target="71_eQ64aTm-e6dtkhZpV-22" edge="1">
          <mxGeometry relative="1" as="geometry" />
        </mxCell>
        <mxCell id="71_eQ64aTm-e6dtkhZpV-23" value="网络层" style="rounded=1;whiteSpace=wrap;html=1;fillColor=#d5e8d4;strokeColor=#82b366;" parent="1" vertex="1">
          <mxGeometry x="740" y="550" width="120" height="60" as="geometry" />
        </mxCell>
        <mxCell id="71_eQ64aTm-e6dtkhZpV-37" style="edgeStyle=orthogonalEdgeStyle;rounded=0;orthogonalLoop=1;jettySize=auto;html=1;" parent="1" source="71_eQ64aTm-e6dtkhZpV-24" target="71_eQ64aTm-e6dtkhZpV-23" edge="1">
          <mxGeometry relative="1" as="geometry" />
        </mxCell>
        <mxCell id="71_eQ64aTm-e6dtkhZpV-24" value="&lt;span style=&quot;font-family: &amp;#34;pingfang sc&amp;#34; , &amp;#34;heiti sc&amp;#34; , &amp;#34;myfont&amp;#34; , &amp;#34;microsoft yahei&amp;#34; , &amp;#34;source han sans sc&amp;#34; , &amp;#34;noto sans cjk sc&amp;#34; , &amp;#34;hanhei sc&amp;#34; , sans-serif , &amp;#34;icomoon&amp;#34; , &amp;#34;icons&amp;#34; , , &amp;#34;fontawesome&amp;#34; , &amp;#34;material icons&amp;#34; , &amp;#34;material icons extended&amp;#34; , &amp;#34;glyphicons halflings&amp;#34;&quot;&gt;数据链路层&lt;/span&gt;" style="rounded=1;whiteSpace=wrap;html=1;fillColor=#d5e8d4;strokeColor=#82b366;" parent="1" vertex="1">
          <mxGeometry x="740" y="660" width="120" height="60" as="geometry" />
        </mxCell>
        <mxCell id="71_eQ64aTm-e6dtkhZpV-36" style="edgeStyle=orthogonalEdgeStyle;rounded=0;orthogonalLoop=1;jettySize=auto;html=1;exitX=0.5;exitY=0;exitDx=0;exitDy=0;entryX=0.5;entryY=1;entryDx=0;entryDy=0;" parent="1" source="71_eQ64aTm-e6dtkhZpV-25" target="71_eQ64aTm-e6dtkhZpV-24" edge="1">
          <mxGeometry relative="1" as="geometry" />
        </mxCell>
        <mxCell id="71_eQ64aTm-e6dtkhZpV-25" value="物理层" style="rounded=1;whiteSpace=wrap;html=1;fillColor=#d5e8d4;strokeColor=#82b366;" parent="1" vertex="1">
          <mxGeometry x="740" y="760" width="120" height="60" as="geometry" />
        </mxCell>
        <mxCell id="71_eQ64aTm-e6dtkhZpV-35" style="edgeStyle=orthogonalEdgeStyle;rounded=0;orthogonalLoop=1;jettySize=auto;html=1;exitX=1;exitY=0.5;exitDx=0;exitDy=0;entryX=0;entryY=0.5;entryDx=0;entryDy=0;" parent="1" source="71_eQ64aTm-e6dtkhZpV-27" target="71_eQ64aTm-e6dtkhZpV-25" edge="1">
          <mxGeometry relative="1" as="geometry" />
        </mxCell>
        <mxCell id="71_eQ64aTm-e6dtkhZpV-27" value="交换机" style="rounded=1;whiteSpace=wrap;html=1;fillColor=#f8cecc;strokeColor=#b85450;" parent="1" vertex="1">
          <mxGeometry x="464.5" y="710" width="120" height="60" as="geometry" />
        </mxCell>
        <mxCell id="71_eQ64aTm-e6dtkhZpV-44" value="协议" style="text;html=1;strokeColor=none;fillColor=none;align=center;verticalAlign=middle;whiteSpace=wrap;rounded=0;" parent="1" vertex="1">
          <mxGeometry x="480" y="40" width="145" height="20" as="geometry" />
        </mxCell>
        <mxCell id="71_eQ64aTm-e6dtkhZpV-63" value="&lt;span style=&quot;color: rgb(77 , 77 , 77) ; font-family: &amp;#34;pingfang sc&amp;#34; , &amp;#34;heiti sc&amp;#34; , &amp;#34;myfont&amp;#34; , &amp;#34;microsoft yahei&amp;#34; , &amp;#34;source han sans sc&amp;#34; , &amp;#34;noto sans cjk sc&amp;#34; , &amp;#34;hanhei sc&amp;#34; , sans-serif , &amp;#34;icomoon&amp;#34; , &amp;#34;icons&amp;#34; , , &amp;#34;fontawesome&amp;#34; , &amp;#34;material icons&amp;#34; , &amp;#34;material icons extended&amp;#34; , &amp;#34;glyphicons halflings&amp;#34; ; font-size: 18px ; background-color: rgb(255 , 255 , 255)&quot;&gt;TELNET、FTP、TFTP、SMTP、SNMP、HTTP、BOOTP、DHCP、DNS&lt;/span&gt;" style="text;html=1;align=center;verticalAlign=middle;resizable=0;points=[];autosize=1;" parent="1" vertex="1">
          <mxGeometry x="300" y="60" width="620" height="20" as="geometry" />
        </mxCell>
        <mxCell id="71_eQ64aTm-e6dtkhZpV-64" value="&lt;span style=&quot;color: rgb(77 , 77 , 77) ; font-family: &amp;#34;pingfang sc&amp;#34; , &amp;#34;heiti sc&amp;#34; , &amp;#34;myfont&amp;#34; , &amp;#34;microsoft yahei&amp;#34; , &amp;#34;source han sans sc&amp;#34; , &amp;#34;noto sans cjk sc&amp;#34; , &amp;#34;hanhei sc&amp;#34; , sans-serif , &amp;#34;icomoon&amp;#34; , &amp;#34;icons&amp;#34; , , &amp;#34;fontawesome&amp;#34; , &amp;#34;material icons&amp;#34; , &amp;#34;material icons extended&amp;#34; , &amp;#34;glyphicons halflings&amp;#34; ; font-size: 18px ; background-color: rgb(255 , 255 , 255)&quot;&gt;&amp;nbsp;文本：ASCII，EBCDIC&lt;/span&gt;" style="text;html=1;align=center;verticalAlign=middle;resizable=0;points=[];autosize=1;" parent="1" vertex="1">
          <mxGeometry x="309" y="170" width="210" height="20" as="geometry" />
        </mxCell>
        <mxCell id="71_eQ64aTm-e6dtkhZpV-66" value="&lt;span style=&quot;color: rgb(77 , 77 , 77) ; font-family: &amp;#34;pingfang sc&amp;#34; , &amp;#34;heiti sc&amp;#34; , &amp;#34;myfont&amp;#34; , &amp;#34;microsoft yahei&amp;#34; , &amp;#34;source han sans sc&amp;#34; , &amp;#34;noto sans cjk sc&amp;#34; , &amp;#34;hanhei sc&amp;#34; , sans-serif , &amp;#34;icomoon&amp;#34; , &amp;#34;icons&amp;#34; , , &amp;#34;fontawesome&amp;#34; , &amp;#34;material icons&amp;#34; , &amp;#34;material icons extended&amp;#34; , &amp;#34;glyphicons halflings&amp;#34; ; font-size: 18px ; background-color: rgb(255 , 255 , 255)&quot;&gt;&amp;nbsp;图形：TIFF，JPEG，GIF，PICT&lt;/span&gt;" style="text;html=1;align=center;verticalAlign=middle;resizable=0;points=[];autosize=1;" parent="1" vertex="1">
          <mxGeometry x="310" y="190" width="280" height="20" as="geometry" />
        </mxCell>
        <mxCell id="71_eQ64aTm-e6dtkhZpV-67" value="&lt;span style=&quot;color: rgb(77 , 77 , 77) ; font-family: &amp;#34;pingfang sc&amp;#34; , &amp;#34;heiti sc&amp;#34; , &amp;#34;myfont&amp;#34; , &amp;#34;microsoft yahei&amp;#34; , &amp;#34;source han sans sc&amp;#34; , &amp;#34;noto sans cjk sc&amp;#34; , &amp;#34;hanhei sc&amp;#34; , sans-serif , &amp;#34;icomoon&amp;#34; , &amp;#34;icons&amp;#34; , , &amp;#34;fontawesome&amp;#34; , &amp;#34;material icons&amp;#34; , &amp;#34;material icons extended&amp;#34; , &amp;#34;glyphicons halflings&amp;#34; ; font-size: 18px ; background-color: rgb(255 , 255 , 255)&quot;&gt;声音：MIDI，MPEG，QUICKTIME&lt;/span&gt;" style="text;html=1;align=center;verticalAlign=middle;resizable=0;points=[];autosize=1;" parent="1" vertex="1">
          <mxGeometry x="315" y="220" width="310" height="20" as="geometry" />
        </mxCell>
        <mxCell id="71_eQ64aTm-e6dtkhZpV-68" value="&lt;span style=&quot;color: rgb(77 , 77 , 77) ; font-family: &amp;#34;pingfang sc&amp;#34; , &amp;#34;heiti sc&amp;#34; , &amp;#34;myfont&amp;#34; , &amp;#34;microsoft yahei&amp;#34; , &amp;#34;source han sans sc&amp;#34; , &amp;#34;noto sans cjk sc&amp;#34; , &amp;#34;hanhei sc&amp;#34; , sans-serif , &amp;#34;icomoon&amp;#34; , &amp;#34;icons&amp;#34; , , &amp;#34;fontawesome&amp;#34; , &amp;#34;material icons&amp;#34; , &amp;#34;material icons extended&amp;#34; , &amp;#34;glyphicons halflings&amp;#34; ; font-size: 18px ; background-color: rgb(255 , 255 , 255)&quot;&gt;NFS、SQL、RPC 、X-WINDOWS、ASP（APPTALK会话协议）、SCP&lt;/span&gt;" style="text;html=1;align=center;verticalAlign=middle;resizable=0;points=[];autosize=1;" parent="1" vertex="1">
          <mxGeometry x="310" y="300" width="600" height="20" as="geometry" />
        </mxCell>
        <mxCell id="71_eQ64aTm-e6dtkhZpV-71" value="&lt;span style=&quot;color: rgb(77 , 77 , 77) ; font-family: &amp;#34;pingfang sc&amp;#34; , &amp;#34;heiti sc&amp;#34; , &amp;#34;myfont&amp;#34; , &amp;#34;microsoft yahei&amp;#34; , &amp;#34;source han sans sc&amp;#34; , &amp;#34;noto sans cjk sc&amp;#34; , &amp;#34;hanhei sc&amp;#34; , sans-serif , &amp;#34;icomoon&amp;#34; , &amp;#34;icons&amp;#34; , , &amp;#34;fontawesome&amp;#34; , &amp;#34;material icons&amp;#34; , &amp;#34;material icons extended&amp;#34; , &amp;#34;glyphicons halflings&amp;#34; ; font-size: 18px ; background-color: rgb(255 , 255 , 255)&quot;&gt;P、IPX、ICMP、RIP、OSPF(Open Shortest Path First开放式最短路径优先)&lt;/span&gt;" style="text;html=1;align=center;verticalAlign=middle;resizable=0;points=[];autosize=1;" parent="1" vertex="1">
          <mxGeometry x="310" y="540" width="650" height="20" as="geometry" />
        </mxCell>
        <mxCell id="71_eQ64aTm-e6dtkhZpV-72" value="&lt;span style=&quot;color: rgb(77 , 77 , 77) ; font-family: &amp;#34;pingfang sc&amp;#34; , &amp;#34;heiti sc&amp;#34; , &amp;#34;myfont&amp;#34; , &amp;#34;microsoft yahei&amp;#34; , &amp;#34;source han sans sc&amp;#34; , &amp;#34;noto sans cjk sc&amp;#34; , &amp;#34;hanhei sc&amp;#34; , sans-serif , &amp;#34;icomoon&amp;#34; , &amp;#34;icons&amp;#34; , , &amp;#34;fontawesome&amp;#34; , &amp;#34;material icons&amp;#34; , &amp;#34;material icons extended&amp;#34; , &amp;#34;glyphicons halflings&amp;#34; ; font-size: 18px ; background-color: rgb(255 , 255 , 255)&quot;&gt;SDLC、HDLC、PPP、STP（Spanning Tree Protocol）、帧中继&lt;/span&gt;" style="text;html=1;align=center;verticalAlign=middle;resizable=0;points=[];autosize=1;" parent="1" vertex="1">
          <mxGeometry x="310" y="640" width="560" height="20" as="geometry" />
        </mxCell>
        <mxCell id="71_eQ64aTm-e6dtkhZpV-73" value="&lt;span style=&quot;color: rgb(77 , 77 , 77) ; font-family: &amp;#34;pingfang sc&amp;#34; , &amp;#34;heiti sc&amp;#34; , &amp;#34;myfont&amp;#34; , &amp;#34;microsoft yahei&amp;#34; , &amp;#34;source han sans sc&amp;#34; , &amp;#34;noto sans cjk sc&amp;#34; , &amp;#34;hanhei sc&amp;#34; , sans-serif , &amp;#34;icomoon&amp;#34; , &amp;#34;icons&amp;#34; , , &amp;#34;fontawesome&amp;#34; , &amp;#34;material icons&amp;#34; , &amp;#34;material icons extended&amp;#34; , &amp;#34;glyphicons halflings&amp;#34; ; font-size: 18px ; background-color: rgb(255 , 255 , 255)&quot;&gt;EIA/TIA RS-232、EIA/TIA RS-449、V.35、RJ-45&lt;/span&gt;" style="text;html=1;align=center;verticalAlign=middle;resizable=0;points=[];autosize=1;" parent="1" vertex="1">
          <mxGeometry x="310" y="827" width="440" height="20" as="geometry" />
        </mxCell>
        <mxCell id="71_eQ64aTm-e6dtkhZpV-76" value="" style="edgeStyle=orthogonalEdgeStyle;shape=link;rounded=0;orthogonalLoop=1;jettySize=auto;html=1;" parent="1" source="71_eQ64aTm-e6dtkhZpV-69" target="71_eQ64aTm-e6dtkhZpV-8" edge="1">
          <mxGeometry relative="1" as="geometry" />
        </mxCell>
        <mxCell id="71_eQ64aTm-e6dtkhZpV-69" value="&lt;span style=&quot;color: rgb(77 , 77 , 77) ; font-family: &amp;#34;pingfang sc&amp;#34; , &amp;#34;heiti sc&amp;#34; , &amp;#34;myfont&amp;#34; , &amp;#34;microsoft yahei&amp;#34; , &amp;#34;source han sans sc&amp;#34; , &amp;#34;noto sans cjk sc&amp;#34; , &amp;#34;hanhei sc&amp;#34; , sans-serif , &amp;#34;icomoon&amp;#34; , &amp;#34;icons&amp;#34; , , &amp;#34;fontawesome&amp;#34; , &amp;#34;material icons&amp;#34; , &amp;#34;material icons extended&amp;#34; , &amp;#34;glyphicons halflings&amp;#34; ; font-size: 18px ; background-color: rgb(255 , 255 , 255)&quot;&gt;TCP、UDP、SPX&lt;/span&gt;" style="text;html=1;align=center;verticalAlign=middle;resizable=0;points=[];autosize=1;" parent="1" vertex="1">
          <mxGeometry x="315" y="450" width="160" height="20" as="geometry" />
        </mxCell>
        <mxCell id="71_eQ64aTm-e6dtkhZpV-75" style="edgeStyle=orthogonalEdgeStyle;shape=link;rounded=0;orthogonalLoop=1;jettySize=auto;html=1;" parent="1" source="71_eQ64aTm-e6dtkhZpV-8" target="71_eQ64aTm-e6dtkhZpV-69" edge="1">
          <mxGeometry relative="1" as="geometry">
            <mxPoint x="310" y="460" as="sourcePoint" />
            <mxPoint x="740" y="460" as="targetPoint" />
          </mxGeometry>
        </mxCell>
        <mxCell id="71_eQ64aTm-e6dtkhZpV-8" value="传输层" style="rounded=1;whiteSpace=wrap;html=1;fillColor=#d5e8d4;strokeColor=#82b366;" parent="1" vertex="1">
          <mxGeometry x="190" y="430" width="120" height="60" as="geometry" />
        </mxCell>
      </root>
    </mxGraphModel>
  </diagram>
</mxfile>
